<?xml version="1.0" encoding="UTF-8"?>
<svg version="1.1" xmlns="http://www.w3.org/2000/svg" width="180" height="180">
<path d="M0 0 C2.1507987 -0.00961036 4.30060107 -0.04061049 6.45117188 -0.07226562 C30.77686571 -0.26031054 51.59086249 10.45959444 68.87304688 27.11523438 C80.76281677 39.33940405 87.66011414 53.83551387 91.68554688 70.24023438 C91.86134277 70.81757324 92.03713867 71.39491211 92.21826172 71.98974609 C93.27105102 77.06007616 92.91185647 82.38859478 92.92578125 87.5546875 C92.93539161 89.7054862 92.96639174 91.85528857 92.99804688 94.00585938 C93.18609179 118.33155321 82.46618681 139.14554999 65.81054688 156.42773438 C53.5863772 168.31750427 39.09026738 175.21480164 22.68554688 179.24023438 C22.10820801 179.41603027 21.53086914 179.59182617 20.93603516 179.77294922 C15.86570509 180.82573852 10.53718647 180.46654397 5.37109375 180.48046875 C3.22029505 180.49007911 1.07049268 180.52107924 -1.08007812 180.55273438 C-25.40577196 180.74077929 -46.21976874 170.02087431 -63.50195312 153.36523438 C-75.39172302 141.1410647 -82.28902039 126.64495488 -86.31445312 110.24023438 C-86.49024902 109.66289551 -86.66604492 109.08555664 -86.84716797 108.49072266 C-87.89995727 103.42039259 -87.54076272 98.09187397 -87.5546875 92.92578125 C-87.56429786 90.77498255 -87.59529799 88.62518018 -87.62695312 86.47460938 C-87.81499804 62.14891554 -77.09509306 41.33491876 -60.43945312 24.05273438 C-48.21528345 12.16296448 -33.71917363 5.26566711 -17.31445312 1.24023438 C-16.73711426 1.06443848 -16.15977539 0.88864258 -15.56494141 0.70751953 C-10.49461134 -0.34526977 -5.16609272 0.01392478 0 0 Z " fill="#AADCFE" transform="translate(87.314453125,-0.240234375)"/>
<path d="M0 0 C32 0 32 0 43 4 C47.94854499 8.94854499 50.1442236 11.66218419 50.25 18.6875 C50.17990061 24.54780874 49.86240601 29.07502774 45.5703125 33.4609375 C43.18183068 35.51669549 40.61995396 37.25336403 38 39 C39.794375 39.5259375 39.794375 39.5259375 41.625 40.0625 C47.50104017 42.27122432 50.66651153 46.27240995 53.375 51.8125 C54.91839491 59.68381402 54.52442566 65.71512236 50.53515625 72.8046875 C45.55001937 79.93356009 39.60973148 80.65189141 31 83 C20.77 83 10.54 83 0 83 C0 55.61 0 28.22 0 0 Z " fill="#FC0506" transform="translate(30,49)"/>
<path d="M0 0 C4.39243685 -0.09976706 8.78425272 -0.17188558 13.17749023 -0.21972656 C14.66816718 -0.23969458 16.1587673 -0.2668792 17.64916992 -0.30175781 C28.05955813 -0.53907139 35.47061828 0.34852151 44.3125 6.1875 C49.92073952 12.05658787 51.2590564 17.49088945 51.5 25.5625 C51.27171348 33.42657686 49.66735636 37.82800866 44.6875 43.75 C39.01875639 48.49592489 33.6839954 51.14541023 26.234375 51.09765625 C25.34492187 51.09443359 24.45546875 51.09121094 23.5390625 51.08789062 C22.15847656 51.07532227 22.15847656 51.07532227 20.75 51.0625 C19.34621094 51.05573242 19.34621094 51.05573242 17.9140625 51.04882812 C15.60930959 51.03706918 13.30468773 51.02063426 11 51 C11.00523682 51.93384521 11.01047363 52.86769043 11.01586914 53.82983398 C11.0328762 57.28312796 11.04543302 60.73637767 11.05493164 64.18969727 C11.05997121 65.68644918 11.06680287 67.18319616 11.07543945 68.67993164 C11.08752159 70.82699807 11.09323191 72.97399962 11.09765625 75.12109375 C11.10289307 76.4145874 11.10812988 77.70808105 11.11352539 79.04077148 C11 82 11 82 10 83 C8.50261876 83.0979057 7.00057108 83.12974864 5.5 83.125 C4.6853125 83.12757813 3.870625 83.13015625 3.03125 83.1328125 C1 83 1 83 0 82 C-0.09506052 79.44410112 -0.12556761 76.91532028 -0.11352539 74.35913086 C-0.11367142 73.55919205 -0.11381744 72.75925323 -0.1139679 71.93507385 C-0.11326855 69.27830335 -0.10547518 66.62160207 -0.09765625 63.96484375 C-0.09579215 62.12781309 -0.09436821 60.29078194 -0.09336853 58.45375061 C-0.08954275 53.60890338 -0.07971196 48.76408592 -0.06866455 43.91925049 C-0.05845172 38.97937422 -0.05387119 34.03949315 -0.04882812 29.09960938 C-0.03808974 19.39972647 -0.0210126 9.69986571 0 0 Z " fill="#FA0B0C" transform="translate(99,49)"/>
<path d="M0 0 C3.3 -0.061875 6.6 -0.12375 10 -0.1875 C11.53527344 -0.22846802 11.53527344 -0.22846802 13.1015625 -0.27026367 C20.12811669 -0.33348634 25.78308497 0.50689086 31.5 4.9375 C33.85674809 9.74919401 33.77585861 14.74373265 33 20 C30.7912942 24.48143206 28.3682222 26.55379557 24 29 C19.15938303 30.40768411 14.1804436 30.11052951 9.1875 30.0625 C6.155625 30.041875 3.12375 30.02125 0 30 C0 20.1 0 10.2 0 0 Z " fill="#ACD7F8" transform="translate(40,93)"/>
<path d="M0 0 C3.01125 -0.061875 6.0225 -0.12375 9.125 -0.1875 C10.06230957 -0.21481201 10.99961914 -0.24212402 11.96533203 -0.27026367 C17.07751305 -0.3208955 20.58409136 0.13341325 25 3 C29.66428072 7.91640401 30.31896426 12.11947307 30.2109375 18.6875 C29.88033267 22.31190854 28.83824486 24.87498374 27 28 C22.71124431 31.39526492 19.22845661 33.13637203 13.76953125 33.09765625 C12.68442261 33.09390991 12.68442261 33.09390991 11.57739258 33.09008789 C10.20877075 33.07643188 10.20877075 33.07643188 8.8125 33.0625 C5.904375 33.041875 2.99625 33.02125 0 33 C0 22.11 0 11.22 0 0 Z " fill="#AADAFC" transform="translate(110,58)"/>
<path d="M0 0 C21.30035899 -0.35500598 21.30035899 -0.35500598 26.9375 4.5625 C27.9584375 5.7690625 27.9584375 5.7690625 29 7 C29.33 7.33 29.66 7.66 30 8 C30.57925867 13.91512219 30.53383967 19.00388185 27 24 C21.24279551 28.39365606 15.10623486 28.13730787 8.1875 28.0625 C5.485625 28.041875 2.78375 28.02125 0 28 C0 18.76 0 9.52 0 0 Z " fill="#ADD3F4" transform="translate(40,57)"/>
</svg>
